<svg version="1.0" xmlns="http://www.w3.org/2000/svg"
     width="226.000000pt" height="85.000000pt" viewBox="0 0 226.000000 85.000000"
     preserveAspectRatio="xMidYMid meet">

    <g transform="translate(0.000000,85.000000) scale(0.100000,-0.100000)"
       fill="#DB202C" stroke="#DB202C">
        <path d="M100 439 l0 -311 31 6 c17 3 38 6 45 6 11 0 14 42 16 213 l3 212 55
-203 55 -203 45 7 c25 4 48 8 52 11 5 2 8 132 8 289 l0 284 -45 0 -45 0 -2
-162 -3 -163 -45 163 -44 162 -63 0 -63 0 0 -311z"/>
        <path d="M470 464 l0 -286 28 5 c16 3 75 9 130 13 l102 7 0 45 0 45 -80 -6
-80 -6 0 78 0 78 38 7 c20 3 49 6 65 6 25 0 27 3 27 40 l0 40 -65 0 -65 0 0
70 0 70 80 0 80 0 0 40 0 40 -130 0 -130 0 0 -286z"/>
        <path d="M790 480 l0 -270 58 0 c31 0 87 3 125 7 l67 6 0 38 0 39 -80 0 -80 0
0 225 0 225 -45 0 -45 0 0 -270z"/>
        <path d="M1080 485 l0 -265 50 0 50 0 0 115 0 115 61 0 60 0 -3 38 -3 37 -57
3 -58 3 0 69 0 70 75 0 75 0 0 40 0 40 -125 0 -125 0 0 -265z"/>
        <path d="M1370 480 l0 -270 48 0 c26 0 84 -3 130 -7 l83 -6 -3 44 -3 44 -77 3
-78 3 0 229 0 230 -50 0 -50 0 0 -270z"/>
        <path d="M1662 473 l3 -278 48 -5 47 -6 0 283 0 283 -50 0 -50 0 2 -277z"/>
        <path d="M1820 741 c0 -5 21 -66 46 -135 l46 -126 -51 -146 c-28 -81 -49 -149
-47 -151 2 -3 22 -7 44 -10 l40 -5 37 111 c20 62 39 110 42 108 2 -3 20 -56
38 -117 19 -62 38 -116 42 -120 4 -4 28 -10 52 -14 l43 -7 -6 28 c-4 15 -27
92 -51 170 l-45 142 49 140 50 141 -47 0 -48 0 -33 -100 c-18 -55 -34 -100
-35 -100 -2 0 -19 45 -37 100 l-33 100 -48 0 c-26 0 -48 -4 -48 -9z"/>
    </g>
</svg>
