<svg version="1.0" xmlns="http://www.w3.org/2000/svg"
     width="40px" height="80px" viewBox="0 0 40 80"
     preserveAspectRatio="xMidYMid meet">

    <g transform="translate(0.000000,85.000000) scale(0.100000,-0.100000)"
       fill="rgb(229, 9, 20)" stroke="rgb(229, 9, 20)">
        <path d="M100 439 l0 -311 31 6 c17 3 38 6 45 6 11 0 14 42 16 213 l3 212 55
-203 55 -203 45 7 c25 4 48 8 52 11 5 2 8 132 8 289 l0 284 -45 0 -45 0 -2
-162 -3 -163 -45 163 -44 162 -63 0 -63 0 0 -311z"/>
    </g>
</svg>
